<svg viewBox="45 71 346 454"><path d=" M65 323 L133 323 C133 323, 143 323, 143 313 L143 259.5 C143 259.5, 143 250, 152.5 250 L152.5 250 C152.5 250, 162 250, 162 240.5 L162 201 C162 201, 162 191, 152 191 L122 191 C122 191, 112 191, 112 181 L112 91 C112 91, 112 81, 122 81 L194 81 C194 81, 204 81, 204 91 L204 133 C204 133, 204 143, 214 143 L244 143 C244 143, 254 143, 254 153 L254 174 C254 174, 254 184, 264 184 L316 184 C316 184, 326 184, 326 194 L326 224 C326 224, 326 234, 336 234 L371 234 C371 234, 381 234, 381 244 L381 334 C381 334, 381 344, 371 344 L299 344 C299 344, 289 344, 289 334 L289 304 C289 304, 289 294, 279 294 L245 294 C245 294, 235 294, 235 304 L235 350 C235 350, 235 360, 225 360 L157 360 C157 360, 147 360, 147 370 L147 395 C147 395, 147 405, 157 405 L206 405 C206 405, 216 405, 216 415 L216 505 C216 505, 216 515, 206 515 L134 515 C134 515, 124 515, 124 505 L124 443 C124 443, 124 433, 114 433 L65 433 C65 433, 55 433, 55 423 L55 333 C55 333, 55 323, 65 323"></path></svg>
