<svg xmlns="http://www.w3.org/2000/svg" viewBox="0 0 24 24"><path d="M20.15.955C4.257.924 4.098 10.569 4.67 14.429c2.009-3.545 5.445-7.674 11.209-10.294a1.5 1.5 0 012.074.992c.193.726-.241 1.468-.924 1.782-5.017 2.309-8.025 5.998-9.782 9.123 1.53-.025 2.917-.153 4.153-.381.943-.174 1.578-1.026 1.601-1.985a.94.94 0 011.435-.775l.725.449a2.009 2.009 0 002.215-.062c4.237-3.014 4.821-7.755 4.781-10.376C22.14 1.819 21.232.957 20.15.955z"/><path d="M3.501 22.999a1.498 1.498 0 01-1.476-1.767c.087-.48 2.273-11.833 13.854-17.097a1.5 1.5 0 111.242 2.731C7.005 11.464 4.994 21.669 4.976 21.771a1.504 1.504 0 01-1.475 1.228z" opacity=".35"/></svg>
