<svg xmlns="http://www.w3.org/2000/svg" viewBox="0 0 24 24"><path d="M19 6h-8l-.545-1.632A2 2 0 008.558 3H4a2 2 0 00-2 2v13a3 3 0 003 3h1.092A1.483 1.483 0 016 20.5a1.5 1.5 0 013 0c0 .176-.036.343-.092.5h6.184a1.483 1.483 0 01-.092-.5 1.5 1.5 0 013 0c0 .176-.036.343-.092.5H19a3 3 0 003-3V9a3 3 0 00-3-3z" opacity=".35"/><path d="M17 11v4c0 1.1-.9 2-2 2H9c-1.1 0-2-.9-2-2v-4l3.2 2.4a2.996 2.996 0 003.6 0L17 11z"/><path d="M11.4 11.8L8.01 9.26C8.3 9.09 8.64 9 9 9h6c.36 0 .7.09.99.26L12.6 11.8a.99.99 0 01-1.2 0z"/></svg>