<svg xmlns="http://www.w3.org/2000/svg" viewBox="0 0 24 24">
  <path
    d="M16.227,14.825C12.7,14.131,9.869,11.3,9.175,7.773C8.958,6.674,8.95,5.606,9.111,4.596c0.17-1.06-0.94-1.892-1.884-1.379C3.654,5.16,1.397,9.215,2.142,13.71c0.685,4.132,4.016,7.463,8.147,8.148c4.495,0.745,8.551-1.512,10.494-5.086c0.513-0.944-0.318-2.053-1.379-1.884C18.394,15.05,17.326,15.042,16.227,14.825z"
    opacity=".35" fill="#fff" />
  <path fill-rule="evenodd"
    d="M14.067,1.611c0.119-0.265,0.382-0.435,0.672-0.435c0.29,0,0.553,0.17,0.672,0.435l0.553,1.235c0.01,0.023,0.025,0.044,0.043,0.062c0.018,0.018,0.039,0.032,0.062,0.043l1.235,0.553c0.265,0.119,0.435,0.382,0.435,0.672c0,0.29-0.17,0.553-0.435,0.672l-1.235,0.553c-0.023,0.01-0.044,0.025-0.062,0.043c-0.018,0.018-0.032,0.039-0.043,0.062L15.41,6.741c-0.119,0.265-0.382,0.435-0.672,0.435c-0.29,0-0.553-0.17-0.672-0.435l-0.553-1.235c-0.01-0.023-0.025-0.044-0.043-0.062c-0.018-0.018-0.039-0.032-0.062-0.043l-1.235-0.553c-0.265-0.119-0.435-0.382-0.435-0.672c0-0.29,0.17-0.553,0.435-0.672l1.235-0.553c0.023-0.01,0.044-0.025,0.062-0.043c0.018-0.018,0.032-0.039,0.043-0.062L14.067,1.611z"
    clip-rule="evenodd" fill="#fff" />
  <path fill-rule="evenodd"
    d="M18.552,8.29C18.631,8.114,18.807,8,19,8s0.369,0.114,0.448,0.29l0.369,0.824c0.007,0.015,0.016,0.029,0.028,0.041s0.026,0.022,0.041,0.028l0.824,0.369C20.886,9.631,21,9.807,21,10s-0.114,0.369-0.29,0.448l-0.824,0.369c-0.015,0.007-0.029,0.016-0.041,0.028s-0.022,0.026-0.028,0.041l-0.369,0.824C19.369,11.886,19.193,12,19,12s-0.369-0.114-0.448-0.29l-0.369-0.824c-0.007-0.015-0.016-0.029-0.028-0.041s-0.026-0.022-0.041-0.028l-0.824-0.369C17.114,10.369,17,10.193,17,10s0.114-0.369,0.29-0.448l0.824-0.369c0.015-0.007,0.029-0.016,0.041-0.028s0.022-0.026,0.028-0.041L18.552,8.29z"
    clip-rule="evenodd" fill="#fff" />
</svg>
