<svg xmlns="http://www.w3.org/2000/svg" viewBox="0 0 24 24"><path d="M16.227 14.825C12.7 14.131 9.869 11.3 9.175 7.773a9.014 9.014 0 01-.064-3.177c.17-1.06-.94-1.892-1.884-1.379A9.998 9.998 0 002.142 13.71c.685 4.132 4.016 7.463 8.147 8.148a9.999 9.999 0 0010.494-5.086c.513-.944-.318-2.053-1.379-1.884a8.99 8.99 0 01-3.177-.063z" opacity=".35"/><path fill-rule="evenodd" d="M14.067 1.611a.736.736 0 011.344 0l.553 1.235c.01.023.025.044.043.062a.222.222 0 00.062.043l1.235.553a.736.736 0 010 1.344l-1.235.553a.203.203 0 00-.062.043.222.222 0 00-.043.062l-.554 1.235a.736.736 0 01-1.344 0l-.553-1.235a.203.203 0 00-.043-.062.222.222 0 00-.062-.043l-1.235-.553a.736.736 0 010-1.344l1.235-.553a.203.203 0 00.062-.043.222.222 0 00.043-.062l.554-1.235zM18.552 8.29a.492.492 0 01.896 0l.369.824c.007.015.016.029.028.041s.026.022.041.028l.824.369a.492.492 0 010 .896l-.824.369c-.015.007-.029.016-.041.028s-.022.026-.028.041l-.369.824a.492.492 0 01-.896 0l-.369-.824c-.007-.015-.016-.029-.028-.041s-.026-.022-.041-.028l-.824-.369a.492.492 0 010-.896l.824-.369c.015-.007.029-.016.041-.028s.022-.026.028-.041l.369-.824z" clip-rule="evenodd"/></svg>
