<svg xmlns="http://www.w3.org/2000/svg" viewBox="0 0 24 24"><circle cx="12" cy="12" r="10" opacity=".35"/><path d="M12 2C6.477 2 2 6.477 2 12s4.477 10 10 10 10-4.477 10-10S17.523 2 12 2zm7.98 9.597c-1.986-.583-3.776-.653-5.367-.386a31.823 31.823 0 00-.597-1.254c1.681-.731 3.169-1.725 4.127-3.074a7.963 7.963 0 011.837 4.714zm-3.323-6.089c-.716 1.156-2.031 2.028-3.592 2.683a34.17 34.17 0 00-2.73-4.014 7.946 7.946 0 016.322 1.331zm-8.314-.615a31.924 31.924 0 012.795 3.969c-2.396.693-4.999 1.003-6.865 1.099a8.021 8.021 0 014.07-5.068zM4 12l.001-.026c1.634-.071 4.981-.336 8.128-1.319.178.348.352.706.523 1.075-3.351 1.23-5.596 3.863-6.715 5.476A7.963 7.963 0 014 12zm3.422 6.551c.887-1.37 2.884-3.917 6.008-4.992a25.69 25.69 0 011.49 5.882A7.968 7.968 0 0112 20a7.949 7.949 0 01-4.578-1.449zm9.376-.164a27.757 27.757 0 00-1.404-5.27c1.323-.147 2.802-.018 4.437.521a8.014 8.014 0 01-3.033 4.749z"/></svg>