<?xml version="1.0" encoding="utf-8"?>
<svg xmlns="http://www.w3.org/2000/svg" viewBox="0 0 24 24" width="192" height="192">
  <circle cx="12" cy="12" r="10" opacity=".35" fill="#2E6B55" />
  <path d="M16,11c0,0-8.652,0-9,0c-0.552,0-1,0.448-1,1s0.448,1,1,1c0.348,0,9,0,9,0V11z" fill="#2E6B55" />
  <path d="M12,7c0.256,0,0.512,0.098,0.707,0.293l4,4c0.391,0.391,0.391,1.023,0,1.414l-4,4c-0.391,0.391-1.023,0.391-1.414,0s-0.391-1.023,0-1.414L14.586,12l-3.293-3.293c-0.391-0.391-0.391-1.023,0-1.414C11.488,7.098,11.744,7,12,7z" fill="#2E6B55" />
</svg>