<svg xmlns="http://www.w3.org/2000/svg" viewBox="0 0 24 24"><path fill-rule="evenodd" d="M10.925 1.193a1.18 1.18 0 012.15 0l1.167 2.578a1.574 1.574 0 001.992.825l2.648-.997a1.179 1.179 0 011.52 1.52l-.997 2.648a1.578 1.578 0 00.825 1.992l2.578 1.167a1.178 1.178 0 01-.001 2.149l-2.578 1.167a1.574 1.574 0 00-.825 1.992l.997 2.648a1.179 1.179 0 01-1.52 1.52l-2.648-.997a1.578 1.578 0 00-1.992.825l-1.167 2.578a1.178 1.178 0 01-2.149-.001l-1.167-2.578a1.574 1.574 0 00-1.992-.825l-2.648.997a1.179 1.179 0 01-1.52-1.52l.997-2.648a1.578 1.578 0 00-.825-1.992l-2.578-1.167a1.178 1.178 0 01.001-2.149l2.578-1.167a1.574 1.574 0 00.825-1.992l-.998-2.648a1.179 1.179 0 011.52-1.52l2.648.997a1.573 1.573 0 001.992-.824l1.167-2.578z" clip-rule="evenodd" opacity=".35"/><path d="M17.006 12.008a5 5 0 11-10.001-.001 5 5 0 0110.001.001"/></svg>
