<svg xmlns="http://www.w3.org/2000/svg" viewBox="0 0 24 24"><path d="M15.577 19.744L16.024 18H7.976l.446 1.744A3 3 0 0011.328 22h1.343a2.999 2.999 0 002.906-2.256z"/><circle cx="21" cy="2" r="1"/><circle cx="21" cy="16" r="1"/><circle cx="3" cy="16" r="1"/><circle cx="23" cy="9" r="1"/><path d="M12 1c-1.898 0-3.64.664-5.011 1.769A2.978 2.978 0 005 2a3 3 0 00-3 3 2.99 2.99 0 002.093 2.845A7.998 7.998 0 004 9a7.982 7.982 0 003.333 6.489L7.976 18h8.048l.643-2.511A7.982 7.982 0 0020 9a8 8 0 00-8-8z" opacity=".35"/><path d="M9 5c0-.38.171-.719.44-.946a.738.738 0 00.234-.819 4.982 4.982 0 00-.811-1.402.704.704 0 00-.795-.215 1.24 1.24 0 01-1.673-.97.697.697 0 00-.572-.578 4.845 4.845 0 00-1.646 0 .697.697 0 00-.572.578 1.235 1.235 0 01-1.673.97.704.704 0 00-.795.215 4.982 4.982 0 00-.811 1.402.739.739 0 00.234.819 1.234 1.234 0 010 1.892.739.739 0 00-.234.819c.194.513.469.986.81 1.402a.707.707 0 00.796.215 1.24 1.24 0 011.673.97.697.697 0 00.572.578 4.845 4.845 0 001.646 0 .699.699 0 00.571-.579 1.24 1.24 0 011.674-.969.706.706 0 00.796-.215 4.97 4.97 0 00.81-1.402.739.739 0 00-.234-.819A1.234 1.234 0 019 5zM5 7a2 2 0 110-4 2 2 0 010 4z"/></svg>
