<svg xmlns="http://www.w3.org/2000/svg" viewBox="0 0 24 24"><circle cx="12" cy="12" r="10" opacity=".35"/><path d="M18.248 8.09c.196-.231-.05-.57-.33-.453-.467.195-.978.37-1.34.442l-.051.016a3.037 3.037 0 00-5.17 2.16c0 .088-.007.251 0 .337-1.896 0-3.413-.832-4.582-1.993a.484.484 0 00-.823.322 5.61 5.61 0 00-.01.343c0 .946.739 1.874 1.89 2.45a2.748 2.748 0 01-.688.094c-.223 0-.531-.092-.781-.189a.255.255 0 00-.336.309c.298 1.046 1.498 1.753 2.58 1.97-.253.149-.763.164-1.012.164a4.38 4.38 0 01-.389-.033c-.264-.03-.443.269-.287.484.531.73 1.537 1.134 2.504 1.151-.655.514-1.734.801-2.809.926-.38.044-.463.564-.115.723.987.45 1.973.705 3.067.705 5.015 0 7.866-3.823 7.866-7.426l-.003-.302.003-.036c0-.018-.005-.036-.005-.054a12.345 12.345 0 00-.006-.222 5.546 5.546 0 001.019-.953c.105-.126-.021-.31-.176-.26a5.498 5.498 0 01-1.047.23c.317-.19.711-.53 1.031-.905z"/></svg>
