<svg xmlns="http://www.w3.org/2000/svg" viewBox="0 0 24 24">
  <path
    d="M20.15,0.955C4.257,0.924,4.098,10.569,4.67,14.429c2.009-3.545,5.445-7.674,11.209-10.294c0.838-0.378,1.828,0.067,2.074,0.992c0.193,0.726-0.241,1.468-0.924,1.782c-5.017,2.309-8.025,5.998-9.782,9.123c1.53-0.025,2.917-0.153,4.153-0.381c0.943-0.174,1.578-1.026,1.601-1.985c0.017-0.723,0.816-1.159,1.435-0.775l0.725,0.449c0.682,0.423,1.561,0.403,2.215-0.062c4.237-3.014,4.821-7.755,4.781-10.376C22.14,1.819,21.232,0.957,20.15,0.955z"
    fill="#2E6B55" />
  <path
    d="M3.501,22.999c-0.09,0-0.181-0.008-0.272-0.025c-0.813-0.15-1.353-0.928-1.204-1.742 c0.087-0.48,2.273-11.833,13.854-17.097c0.76-0.342,1.645-0.009,1.986,0.745c0.343,0.754,0.01,1.644-0.744,1.986 C7.005,11.464,4.994,21.669,4.976,21.771C4.841,22.493,4.21,22.999,3.501,22.999z"
    opacity=".35" fill="#2E6B55" />
</svg>
