<svg xmlns="http://www.w3.org/2000/svg" viewBox="0 0 24 24">
  <path
    d="M19,6h-8l-0.545-1.632C10.183,3.551,9.419,3,8.558,3H4C2.895,3,2,3.895,2,5v1v12c0,1.657,1.343,3,3,3h1.092C6.036,20.843,6,20.676,6,20.5C6,19.672,6.672,19,7.5,19S9,19.672,9,20.5c0,0.176-0.036,0.343-0.092,0.5h6.184C15.036,20.843,15,20.676,15,20.5c0-0.828,0.672-1.5,1.5-1.5s1.5,0.672,1.5,1.5c0,0.176-0.036,0.343-0.092,0.5H19c1.657,0,3-1.343,3-3V9C22,7.343,20.657,6,19,6z"
    opacity=".35" fill="#2E6B55" />
  <path
    d="M17,11v4c0,1.1-0.9,2-2,2H9c-1.1,0-2-0.9-2-2v-4l3.2,2.4c0.53,0.4,1.17,0.6,1.8,0.6c0.64,0,1.27-0.2,1.8-0.6L17,11z"
    fill="#2E6B55" />
  <path
    d="M11.4,11.8L8.01,9.26C8.3,9.09,8.64,9,9,9h6c0.36,0,0.7,0.09,0.99,0.26L12.6,11.8C12.25,12.07,11.75,12.07,11.4,11.8z"
    fill="#2E6B55" />
</svg>
