<svg xmlns="http://www.w3.org/2000/svg" viewBox="0 0 24 24">
  <path
    d="M4 3L3.1875 5.1875L1 6L3.1875 6.8125L4 9L4.8125 6.8125L7 6L4.8125 5.1875L4 3 z M 14.011719 5C11.935677 4.9771864 9.9134942 5.7740058 8.34375 7.34375C5.2304101 10.45709 5.2304101 15.54291 8.34375 18.65625C11.45709 21.76959 16.54291 21.76959 19.65625 18.65625C20.923385 17.389115 21.681067 15.786164 21.910156 14.136719L22.066406 13.013672L20.931641 13C19.421592 12.98284 17.919251 12.403625 16.757812 11.242188C15.393884 9.8782586 14.892282 7.8548169 14.998047 6.0585938L15.060547 5.0117188L14.011719 5 z M 13.146484 7.15625C13.260374 9.08526 13.79361 11.10611 15.34375 12.65625C16.557388 13.869888 18.087397 14.475387 19.658203 14.746094C19.383983 15.651608 18.960447 16.523927 18.242188 17.242188C15.895526 19.588847 12.104473 19.588847 9.7578125 17.242188C7.4111524 14.895526 7.4111524 11.104473 9.7578125 8.7578125C10.741487 7.7741384 11.91169 7.3210344 13.146484 7.15625 z"
    fill="#fefdfc" />
</svg>
