<svg xmlns="http://www.w3.org/2000/svg" viewBox="0 0 24 24">
  <circle cx="12" cy="12" r="10" opacity=".35" fill="#2E6B55" />
  <path
    d="M12,2C6.477,2,2,6.477,2,12s4.477,10,10,10c5.523,0,10-4.477,10-10S17.523,2,12,2z M19.98,11.597c-1.986-0.583-3.776-0.653-5.367-0.386c-0.194-0.431-0.393-0.849-0.597-1.254c1.681-0.731,3.169-1.725,4.127-3.074C19.22,8.174,19.89,9.81,19.98,11.597z M16.657,5.508c-0.716,1.156-2.031,2.028-3.592,2.683c-0.957-1.648-1.929-3.001-2.73-4.014C10.873,4.063,11.429,4,12,4C13.738,4,15.344,4.563,16.657,5.508z M8.343,4.893c0.766,0.923,1.781,2.272,2.795,3.969C8.742,9.555,6.139,9.865,4.273,9.961C4.856,7.754,6.355,5.92,8.343,4.893z M4,12c0-0.009,0.001-0.017,0.001-0.026c1.634-0.071,4.981-0.336,8.128-1.319c0.178,0.348,0.352,0.706,0.523,1.075c-3.351,1.23-5.596,3.863-6.715,5.476C4.733,15.805,4,13.988,4,12z M7.422,18.551c0.887-1.37,2.884-3.917,6.008-4.992c0.681,1.783,1.217,3.759,1.49,5.882C14.013,19.797,13.031,20,12,20C10.297,20,8.72,19.461,7.422,18.551z M16.798,18.387c-0.302-1.887-0.802-3.647-1.404-5.27c1.323-0.147,2.802-0.018,4.437,0.521C19.427,15.569,18.32,17.24,16.798,18.387z"
    fill="#2E6B55" />
</svg>
