<svg xmlns="http://www.w3.org/2000/svg" viewBox="0 0 24 24">
  <path d="M11 0L11 3L13 3L13 0L11 0 z M 4.2226562 2.8085938L2.8085938 4.2226562L4.9296875 6.34375L6.34375 4.9296875L4.2226562 2.8085938 z M 19.777344 2.8085938L17.65625 4.9296875L19.070312 6.34375L21.191406 4.2226562L19.777344 2.8085938 z M 12 5C8.1458514 5 5 8.1458514 5 12C5 15.854149 8.1458514 19 12 19C15.854149 19 19 15.854149 19 12C19 8.1458514 15.854149 5 12 5 z M 12 7C14.773268 7 17 9.2267316 17 12C17 14.773268 14.773268 17 12 17C9.2267316 17 7 14.773268 7 12C7 9.2267316 9.2267316 7 12 7 z M 0 11L0 13L3 13L3 11L0 11 z M 21 11L21 13L24 13L24 11L21 11 z M 4.9296875 17.65625L2.8085938 19.777344L4.2226562 21.191406L6.34375 19.070312L4.9296875 17.65625 z M 19.070312 17.65625L17.65625 19.070312L19.777344 21.191406L21.191406 19.777344L19.070312 17.65625 z M 11 21L11 24L13 24L13 21L11 21 z" fill="#0d151c" />
</svg>
