<svg xmlns="http://www.w3.org/2000/svg" viewBox="0 0 24 24">
  <path
    d="M18,21H6c-1.657,0-3-1.343-3-3V6c0-1.657,1.343-3,3-3h12c1.657,0,3,1.343,3,3v12 C21,19.657,19.657,21,18,21z"
    opacity=".35" fill="#2E6B55" />
  <circle cx="8" cy="16" r="2" fill="#2E6B55" />
  <path
    d="M13,18c-0.553,0-1-0.448-1-1c0-2.757-2.243-5-5-5c-0.553,0-1-0.448-1-1s0.447-1,1-1c3.859,0,7,3.14,7,7 C14,17.552,13.553,18,13,18z"
    fill="#2E6B55" />
  <path
    d="M17,18c-0.553,0-1-0.448-1-1c0-4.962-4.037-9-9-9C6.447,8,6,7.552,6,7s0.447-1,1-1c6.065,0,11,4.935,11,11 C18,17.552,17.553,18,17,18z"
    fill="#2E6B55" />
</svg>
