<svg xmlns="http://www.w3.org/2000/svg" viewBox="0 0 24 24">
  <path d="M1,12c-0.552,0-1-0.448-1-1V8c0-0.552,0.448-1,1-1s1,0.448,1,1v3C2,11.552,1.552,12,1,12z"
    fill="#2E6B55" />
  <path d="M4,12c-0.552,0-1-0.448-1-1V5c0-0.552,0.448-1,1-1s1,0.448,1,1v6C5,11.552,4.552,12,4,12z"
    fill="#2E6B55" />
  <path
    d="M10,12c-0.552,0-1-0.448-1-1V6c0-0.552,0.448-1,1-1s1,0.448,1,1v5C11,11.552,10.552,12,10,12z"
    fill="#2E6B55" />
  <path d="M7,12c-0.552,0-1-0.448-1-1V2c0-0.552,0.448-1,1-1s1,0.448,1,1v9C8,11.552,7.552,12,7,12z"
    fill="#2E6B55" />
  <path
    d="M22,18c-0.552,0-1-0.448-1-1v-4c0-0.552,0.448-1,1-1s1,0.448,1,1v4C23,17.552,22.552,18,22,18z"
    opacity=".35" fill="#2E6B55" />
  <path
    d="M19,20c-0.552,0-1-0.448-1-1v-6c0-0.552,0.448-1,1-1s1,0.448,1,1v6C20,19.552,19.552,20,19,20z"
    opacity=".35" fill="#2E6B55" />
  <path
    d="M13,19c-0.552,0-1-0.448-1-1v-5c0-0.552,0.448-1,1-1s1,0.448,1,1v5C14,18.552,13.552,19,13,19z"
    opacity=".35" fill="#2E6B55" />
  <path
    d="M16,23c-0.552,0-1-0.448-1-1v-9c0-0.552,0.448-1,1-1s1,0.448,1,1v9C17,22.552,16.552,23,16,23z"
    opacity=".35" fill="#2E6B55" />
</svg>
