<svg xmlns="http://www.w3.org/2000/svg" width="48" height="48"><path fill="#388E3C" d="M41 42H7l5-5h24z"/><path fill="#388E3C" d="M19 32.875h10v5H19z"/><path fill="#4CAF50" d="M42 33a2 2 0 01-2 2H8a2 2 0 01-2-2V8a2 2 0 012-2h32a2 2 0 012 2v25z"/><path fill="#1B5E20" d="M9 9h30v22.875H9z"/><g fill="#66BB6A"><path d="M19.88 12.443L22 14.564l-7.777 7.78-2.122-2.122z"/><path d="M12.1 20.221l2.12-2.122L22 25.875l-2.12 2.122zM36 20.221l-2.121 2.122-7.779-7.778 2.121-2.122z"/><path d="M28.222 28l-2.12-2.122 7.78-7.776 2.12 2.122z"/></g></svg>
